<?xml version="1.0" encoding="utf-8"?>
<!-- Generator: Adobe Illustrator 24.1.1, SVG Export Plug-In . SVG Version: 6.00 Build 0)  -->
<svg version="1.1" id="Warstwa_1" xmlns="http://www.w3.org/2000/svg" xmlns:xlink="http://www.w3.org/1999/xlink" x="0px" y="0px"
	 viewBox="0 0 707.1 200" style="enable-background:new 0 0 707.1 200;" xml:space="preserve">
<style type="text/css">
	.st0{fill:#FFFFFF;}
	.st1{fill-opacity:0;}
	.st2{fill:#8E3E0B;}
	.st3{fill:#005782;}
	.st4{fill:#F3702A;}
	.st5{fill:#00314F;}
</style>
<polygon class="st0" points="86.6,133.3 57.7,116.7 57.7,83.3 86.6,66.7 115.5,83.3 144.3,66.7 86.6,33.3 28.9,66.7 28.9,133.3 
	86.6,166.7 144.3,133.3 115.5,116.7 "/>
<polygon class="st1" points="86.6,100 0,50 0,150 "/>
<g id="Layer_2_1_">
	<g id="Layer_1-2">
		<path class="st2" d="M149.8,95.9c-7,0.1-14-0.7-20.9-2.4c-0.8-0.2-1.6-0.5-2.4-0.7l-0.7-0.2l-1.5-0.6l-0.7-0.4l-1.2-0.6l-0.8-0.4
			l-1-0.6l-0.7-0.4l-0.9-0.7l-0.6-0.5l-0.7-0.7l-0.5-0.5l-0.6-0.7l-0.4-0.6v-0.2c4.6,7.9,16.6,13.3,30,13.3h44
			C190.2,99,164.5,95.9,149.8,95.9z"/>
		<path class="st3" d="M209.2,17c-16,0.2-31.7,4.4-45.6,12.1c3.4,1.3,6.7,2.8,9.9,4.5c6.3,3.3,12.1,7.7,16.9,13
			c4.7,5.1,8.1,11.2,9.9,17.9l0.2,0.7v0.7c0.1,1.2,0.1,2.4,0,3.6c-0.2,1.8-0.7,3.5-1.4,5.1v0.2v-0.2c1.8,0.2,3.6,0.7,5.3,1.4
			l5.1-4.6l5.7,4.3l-3.7,5.5c1.5,1.7,2.7,3.7,3.5,5.8l6.1-0.9l0.6,7.6l-5.9,2.6c-0.3,2.6-1,5.2-2,7.6l4.4,3.1l-4.8,7.3l-5.5-1.5
			c-1.9,2.1-4,3.9-6.4,5.5l0.6,5.7l-7.9,3.6l-2.4-4.9c-2.5,0.7-5.1,1-7.6,1l-3.6,5.8l-7.1-1.7l1.9-6.1c-2-1-3.8-2.3-5.3-3.9l-6.2,3
			l-3.5-6.3l5.5-4.5c0-0.4-0.2-0.8-0.3-1.2h-19.3c-8,0.1-15.9-1.6-23.2-4.9c-5.2-2.3-9.8-5.9-13.4-10.4c-0.5,1.9-1,3.7-1.5,5.5
			c-10.5,45.3,17.8,82.1,63.2,82.1s90.6-36.7,101.1-82C282.8,53.8,254.5,17,209.2,17z"/>
		<path class="st3" d="M378.8,155.2h-37.2c0.4,6.9,4.5,10.5,12.5,10.5c4.8,0.1,9.4-1.6,13-4.8l5.9,9.8c-5.7,4.6-12.9,7.1-20.3,6.9
			c-15.1,0-24.9-9-24.9-22.9c0-17.1,11.7-29.8,28.6-29.8c14.2,0,23.1,8.9,23.1,22.6C379.5,150,379.3,152.6,378.8,155.2z
			 M342.6,146.5h24.1c0.4-5.5-3.7-10.2-9.2-10.6c-0.6,0-1.1,0-1.7,0C349.5,135.9,343.9,140.3,342.6,146.5L342.6,146.5z"/>
		<path class="st3" d="M384,154.6c-0.6-15.9,11.8-29.2,27.7-29.8c0.6,0,1.3,0,1.9,0c10.4,0,18.2,4.7,21.9,13l-11.9,6.4
			c-1.8-4.4-6.1-7.2-10.8-6.9c-8.3,0-14.5,6.8-14.5,16.8c-0.6,5.7,3.7,10.9,9.4,11.4c0.6,0.1,1.3,0.1,1.9,0
			c4.9,0.1,9.5-2.5,11.9-6.9l10.4,6.9c-5,7.9-13.8,12.6-23.1,12.3C393.7,177.6,384,168.4,384,154.6z"/>
		<path class="st3" d="M489.7,142.4c0,2-0.2,4.1-0.6,6.1l-5.5,28.4h-14.1l5.2-27.4c0.2-1.2,0.4-2.3,0.4-3.5c0.6-4-2.3-7.7-6.3-8.3
			c-0.7-0.1-1.3-0.1-2,0c-7.1,0-12.1,4.2-13.8,13.1l-4.9,26H434l13.4-70.6h14.1l-4.4,24.2c4.1-3.6,9.4-5.6,14.9-5.5
			C482.6,124.8,489.7,130.9,489.7,142.4z"/>
		<polygon class="st4" points="355.2,23.4 341.8,94 355.9,94 369.3,23.4 		"/>
		<path class="st4" d="M392.2,77.8L385,43h-14.1L382,94.2l-0.5,0.9c-2.8,4.5-5.1,6.3-8.7,6.3c-2.9,0-5.7-1.1-7.8-3.2l-6.4,10.5
			c3.7,3,8.4,4.6,13.2,4.5c9.3,0,15.1-3.7,22.1-15.8l32.5-54.6h-13.8L392.2,77.8z"/>
		<polygon class="st4" points="502.5,42.8 484.5,77.3 479,42.8 466.9,42.8 448.6,77.3 443.3,42.8 430.5,42.8 439.1,94 452.8,94 
			469.5,62.1 475.1,94 489,94 515.8,42.8 		"/>
		<path class="st4" d="M547.8,42c-5.5-0.1-10.9,1.8-15,5.3l4.5-24.1h-14.1l-13.4,70.6h14.1l4.9-26c1.7-9,6.7-13.1,13.8-13.1
			c4-0.6,7.7,2.3,8.3,6.3c0.1,0.7,0.1,1.3,0,2c0,1.2-0.1,2.4-0.4,3.5L545.3,94h14.1l5.5-28.4c0.4-2,0.6-4,0.6-6.1
			C565.5,48.1,558.3,42,547.8,42z"/>
		<path class="st4" d="M598.5,42c-16.9,0-28.6,12.7-28.6,29.8c0,13.8,9.7,22.9,24.9,22.9c7.4,0.2,14.6-2.2,20.3-6.9l-5.9-9.8
			c-3.6,3.1-8.2,4.8-13,4.8c-8,0-12.1-3.5-12.5-10.5h37.2c0.5-2.6,0.8-5.2,0.8-7.8C621.6,50.9,612.6,42,598.5,42z M584.6,63.7
			c1.4-6.2,6.9-10.6,13.3-10.6c5.4-0.5,10.3,3.4,10.8,8.9c0.1,0.6,0.1,1.1,0,1.7H584.6z"/>
		<path class="st4" d="M654,42c-16.9,0-28.6,12.7-28.6,29.8c0,13.8,9.7,22.9,24.9,22.9c7.4,0.2,14.6-2.2,20.3-6.9l-5.9-9.8
			c-3.6,3.1-8.2,4.8-13,4.8c-8,0-12.1-3.5-12.5-10.5h37.2c0.5-2.6,0.8-5.2,0.8-7.8C677.1,50.9,668.2,42,654,42z M640.2,63.7
			c1.4-6.2,6.9-10.6,13.3-10.6c5.4-0.5,10.3,3.4,10.8,8.9c0.1,0.6,0.1,1.1,0,1.7H640.2z"/>
		<polygon class="st4" points="690.9,23.4 677.6,94 691.6,94 705,23.4 		"/>
		<path class="st4" d="M330.8,42c1-5.3,3.3-7.7,7.7-7.7c2-0.1,4,0.6,5.5,1.8l5.5-10.7c-3.4-1.9-7.2-2.9-11.1-2.8
			c-11.9,0-19,7.2-21.1,18.4l-3.4,18.2h-7.6l-2.2,11.4h7.5l-4.4,23.4h14.1l4.4-23.4h12l2.2-11.4h-11.9L330.8,42z"/>
		<path class="st3" d="M313.3,141h11.8l2.2-11.4h-11.8l4.1-23.1h-14.1l-4.2,23.1h-7.7l-2.2,11.4h7.7l-3.3,17.9
			c-0.3,1.5-0.4,3-0.5,4.5c0,9,6.2,14.3,15.2,14.3c4.3,0.2,8.5-0.9,12.1-3l-2.1-10.6c-1.7,1.1-3.7,1.7-5.7,1.8
			c-2.4,0.4-4.7-1.2-5.2-3.7c-0.1-0.5-0.1-0.9,0-1.4c0-0.7,0-1.4,0.2-2.1L313.3,141z"/>
		<path class="st5" d="M247.8,28c21.2,14.2,31.6,40.7,24.5,71.1c-10.5,45.3-55.7,82.1-101.1,82.1c-12.4,0.2-24.6-2.9-35.4-9
			c11.5,7.5,25,11.3,38.7,11.1c45.4,0,90.6-36.8,101.1-82.1C282.9,69.2,271.2,41.7,247.8,28z"/>
		<polygon class="st5" points="216.1,89.1 221.2,88.4 221,86 214.8,87 		"/>
		<path class="st5" d="M198.8,76.6c2.4,0,4.8,0.5,6.9,1.5l5.1-4.6l3.8,2.8l0.5-0.8l-5.7-4.3l-5.1,4.8c-1.7-0.7-3.5-1.1-5.3-1.4v0.2
			c-0.3,0.6-0.5,1.3-0.6,1.9C198.6,76.7,198.6,76.6,198.8,76.6z"/>
		<polygon class="st5" points="217.5,107.7 218.1,106.9 213.7,103.8 215,106 		"/>
		<polygon class="st5" points="193.2,125.1 191.8,122.9 194.2,127.8 194.4,127.7 		"/>
		<polygon class="st5" points="176.5,123.9 175.1,121.8 173.2,127.9 175.1,128.4 		"/>
		<path class="st5" d="M161.6,116.7l5.5-4.5l-0.3-1.2c-0.6-0.7-1-1.4-1.4-2.2l0,0c0,0.4,0.2,0.8,0.3,1.2l-5.5,4.5l3.4,6.3h0.2
			L161.6,116.7z"/>
		<path class="st2" d="M104.3,51.6c0-0.2,0-0.5,0-0.7c0-4.2-3.4-7.6-7.5-7.6H37.4C30.2,43.3,23,42.6,16,41c-0.9-0.2-1.7-0.4-2.5-0.7
			l-0.7-0.2l-1.5-0.5l-0.8-0.4l-1.2-0.6l-0.8-0.4l-1.1-0.6l-0.7-0.3c-0.3-0.2-0.7-0.4-1-0.7l-0.6-0.4c-0.4-0.3-0.7-0.6-1-0.9
			C4.1,35.2,4,35.1,3.9,35c-0.3-0.4-0.7-0.8-0.9-1.2c5.3,7.7,21.1,12.9,34.4,12.9h57.8C99.8,46.7,103.6,48.8,104.3,51.6z"/>
		<path class="st2" d="M161.6,77.8c0-0.2,0-0.5,0-0.7c0-4.1-3.4-7.5-7.5-7.5H94.6c-6.4,0.2-12.9-0.6-19.1-2.2
			c-2.5-0.7-4.9-1.8-7-3.3c-0.5-0.3-0.9-0.7-1.3-1l-0.3-0.3c-0.3-0.3-0.6-0.6-0.8-0.9l-0.3-0.6c-0.3-0.4-0.6-0.8-0.9-1.2
			c4.8,7.7,16.6,12.8,29.7,12.8H151C155.6,72.9,160.8,75,161.6,77.8z"/>
		<path class="st4" d="M190,71.1v-0.3c0.4-0.7,0.6-1.5,0.7-2.3c0-0.4,0-1.6,0-1.6c-1.4-5.2-4.1-9.9-7.7-13.8
			c-4.1-4.4-9-8.1-14.3-10.9c-6.1-3.2-12.6-5.7-19.3-7.2c-7.4-1.7-15-2.6-22.6-2.5H2c1.9,4,6.6,6.8,14,8.7c7,1.6,14.2,2.3,21.5,2.2
			h59.3c4.2,0,7.6,3.4,7.6,7.6c0,4.2-3.4,7.6-7.6,7.6H63.9c1,2.2,2.6,4.1,4.6,5.5c2.1,1.5,4.5,2.6,7,3.3c6.2,1.7,12.6,2.4,19.1,2.2
			H154c4.2,0,7.6,3.4,7.6,7.6c0,4.2-3.4,7.6-7.6,7.6h-38.5l0,0c1.9,3.9,6.4,6.9,13.4,8.8c6.8,1.7,13.8,2.5,20.9,2.4
			c14.7,0,40.4,3.2,40.4,3.2l0,0c-2-4.6-3-9.6-3-14.7c0-2.8,0.4-5.6,1.1-8.3C188.7,74.5,189.3,72.8,190,71.1z"/>
	</g>
</g>
</svg>
