<?xml version="1.0" encoding="utf-8"?>
<!-- Generator: Adobe Illustrator 24.1.1, SVG Export Plug-In . SVG Version: 6.00 Build 0)  -->
<svg version="1.1" id="Warstwa_1" xmlns="http://www.w3.org/2000/svg" xmlns:xlink="http://www.w3.org/1999/xlink" x="0px" y="0px"
	 viewBox="0 0 173.2 200" style="enable-background:new 0 0 173.2 200;" xml:space="preserve">
<style type="text/css">
	.st0{fill:#8E3E0B;}
	.st1{fill:#005782;}
	.st2{fill:#00314F;}
	.st3{fill:#F3702A;}
</style>
<g id="Layer_2_1_">
	<g id="Layer_1-2">
		<path class="st0" d="M92.6,99.4c-4.4,0.1-8.7-0.4-12.9-1.5c-0.5-0.1-1-0.3-1.5-0.5l-0.4-0.2L76.9,97l-0.4-0.2l-0.7-0.3l-0.5-0.3
			l-0.6-0.4l-0.4-0.3l-0.6-0.5l-0.4-0.3l-0.4-0.4L72.5,94l-0.4-0.5l-0.3-0.3v-0.1c2.8,4.9,10.3,8.2,18.6,8.2h27.2
			C117.7,101.4,101.7,99.4,92.6,99.4z"/>
		<path class="st1" d="M129.4,50.5c-9.9,0.1-19.6,2.7-28.3,7.5c2.1,0.8,4.1,1.7,6.1,2.8c3.9,2.1,7.5,4.8,10.5,8
			c2.9,3.1,5,6.9,6.2,11.1l0.1,0.4v0.4c0.1,0.8,0.1,1.5,0,2.3c-0.1,1.1-0.4,2.2-0.9,3.2v0.1v-0.1c1.1,0.1,2.2,0.4,3.3,0.8l3.2-2.9
			l3.5,2.7l-2.3,3.4c0.9,1.1,1.7,2.3,2.1,3.6l3.8-0.5l0.4,4.7l-3.7,1.6c-0.2,1.6-0.6,3.2-1.3,4.7l2.7,1.9l-3,4.5l-3.4-0.9
			c-1.2,1.3-2.5,2.4-3.9,3.4l0.4,3.5l-4.9,2.3l-1.5-3c-1.5,0.4-3.1,0.6-4.7,0.6l-2.2,3.6l-4.4-1l1.2-3.8c-1.2-0.6-2.3-1.4-3.3-2.4
			l-3.9,1.9l-2.2-3.9l3.4-2.8c0-0.2-0.1-0.5-0.2-0.7h-12c-5,0-9.9-1-14.4-3.1c-3.3-1.5-6.1-3.7-8.3-6.5c-0.3,1.1-0.6,2.3-0.9,3.4
			c-6.5,28.1,11,50.9,39.2,50.9s56.2-22.8,62.7-50.9S157.6,50.5,129.4,50.5z"/>
		<path class="st2" d="M153.4,57.4c13.1,8.8,19.6,25.2,15.2,44.1c-6.5,28.1-34.6,50.9-62.7,50.9c-7.7,0.1-15.2-1.8-21.9-5.6
			c7.1,4.6,15.5,7,24,6.9c28.1,0,56.2-22.8,62.7-50.9C175.2,82.9,167.9,65.8,153.4,57.4z"/>
		<polygon class="st2" points="133.8,95.2 136.9,94.8 136.8,93.3 132.9,93.9 		"/>
		<path class="st2" d="M123,87.5c1.5,0,2.9,0.3,4.3,0.9l3.2-2.9l2.4,1.7l0.3-0.5l-3.5-2.7l-3.2,3c-1.1-0.4-2.2-0.7-3.3-0.8v0.1
			c-0.2,0.4-0.3,0.8-0.4,1.2C122.9,87.5,122.9,87.5,123,87.5z"/>
		<polygon class="st2" points="134.6,106.8 135,106.3 132.2,104.3 133.1,105.7 		"/>
		<polygon class="st2" points="119.5,117.5 118.7,116.2 120.2,119.2 120.3,119.2 		"/>
		<polygon class="st2" points="109.2,116.8 108.3,115.5 107.2,119.3 108.3,119.6 		"/>
		<path class="st2" d="M99.9,112.4l3.4-2.8l-0.2-0.8c-0.4-0.4-0.6-0.9-0.8-1.4l0,0c0,0.2,0.1,0.5,0.2,0.7l-3.4,2.8l2.1,3.9h0.1
			L99.9,112.4z"/>
		<path class="st0" d="M64.4,72c0-0.1,0-0.3,0-0.4c0-2.6-2.1-4.7-4.7-4.7H23c-4.5,0.1-8.9-0.4-13.3-1.4c-0.5-0.1-1-0.3-1.5-0.4
			l-0.5-0.2l-0.9-0.3l-0.5-0.3l-0.8-0.3L5,63.6l-0.7-0.4l-0.4-0.2c-0.2-0.1-0.4-0.3-0.6-0.4L3,62.4c-0.3-0.2-0.4-0.3-0.6-0.5
			c-0.1-0.1-0.1-0.1-0.2-0.2C2,61.5,1.8,61.2,1.6,61c3.3,4.8,13.1,8,21.4,8h35.8C61.6,69,64,70.3,64.4,72z"/>
		<path class="st0" d="M99.9,88.2c0-0.2,0-0.3,0-0.5c0-2.6-2.1-4.6-4.7-4.7H58.4c-4,0.1-8-0.3-11.8-1.4c-1.6-0.4-3-1.1-4.4-2
			c-0.3-0.2-0.5-0.4-0.8-0.6l-0.2-0.2c-0.2-0.2-0.4-0.3-0.5-0.5l-0.2-0.3c-0.2-0.2-0.4-0.5-0.5-0.7c3,4.8,10.3,7.9,18.4,8h35
			C96.2,85.2,99.5,86.5,99.9,88.2z"/>
		<path class="st3" d="M117.5,84.1v-0.2c0.2-0.5,0.4-1,0.5-1.5c0-0.3,0-1,0-1c-0.9-3.2-2.5-6.1-4.8-8.6c-2.6-2.8-5.6-5-8.9-6.8
			c-3.8-2-7.8-3.5-12-4.5c-4.6-1.1-9.3-1.6-14-1.6H1c1.2,2.5,4.1,4.2,8.7,5.4c4.4,1,8.8,1.4,13.3,1.4h36.8c2.6,0,4.7,2.1,4.7,4.7
			c0,2.6-2.1,4.7-4.7,4.7H39.4c0.6,1.4,1.6,2.5,2.8,3.4c1.3,0.9,2.8,1.6,4.4,2.1c3.9,1,7.8,1.5,11.8,1.4h36.9c2.6,0,4.7,2.1,4.7,4.7
			s-2.1,4.7-4.7,4.7H71.4l0,0c1.2,2.4,4,4.3,8.3,5.4c4.2,1,8.6,1.5,12.9,1.5c9.1,0,25.1,2,25.1,2l0,0c-1.2-2.9-1.8-6-1.9-9.1
			c0-1.7,0.2-3.5,0.7-5.1C116.8,86.2,117.1,85.1,117.5,84.1z"/>
	</g>
</g>
</svg>
